<?xml version="1.0" encoding="UTF-8"?>
<svg xmlns="http://www.w3.org/2000/svg" xmlns:xlink="http://www.w3.org/1999/xlink" width="1200px" height="800px" viewBox="0 0 800 800" version="1.1">
<g id="surface1">
<rect x="0" y="0" width="800" height="800" style="fill:rgb(100%,100%,100%);fill-opacity:1;stroke:none;"/>
<path style=" stroke:none;fill-rule:evenodd;fill:rgb(80.784315%,24.313726%,18.431373%);fill-opacity:1;" d="M 577.941406 286.105469 C 458.203125 283.371094 364.699219 345.859375 203.605469 335.257812 C 165.910156 332.292969 126.085938 319.542969 100.386719 265.21875 C 100.386719 265.21875 95.386719 268.070312 95.707031 284.464844 C 96.460938 320.910156 149.851562 343.992188 149.851562 369.328125 C 149.851562 389.078125 137.054688 394.125 125.976562 394.050781 C 110.148438 394.304688 92.789062 374.347656 92.71875 345.679688 C 92.703125 328.527344 76.730469 320.230469 76.730469 320.230469 C 76.730469 320.230469 83.097656 331.335938 83.050781 340.046875 C 83.050781 344.308594 80.359375 349.902344 76.84375 349.667969 C 49.726562 347.753906 52.140625 281.9375 52.140625 281.9375 C 52.140625 281.9375 35.355469 320.179688 35.285156 345.132812 C 35.285156 359.429688 39.714844 367.597656 47.121094 372.316406 C 51.851562 375.46875 68.019531 381.808594 67.511719 389.628906 C 67.199219 393.777344 63.046875 396.585938 59.210938 396.035156 C 51.664062 395.492188 41.238281 387.144531 41.238281 387.144531 C 51.40625 409.40625 81.472656 430.863281 119.171875 431.414062 C 159.554688 430.863281 181.886719 409.859375 220.59375 409.859375 C 241.597656 409.859375 258.675781 421.011719 259.160156 441.910156 C 259.273438 458.421875 249.167969 472.097656 234.867188 470.734375 C 219.792969 469.296875 208.910156 453.71875 194.429688 451.714844 C 188.25 450.84375 185.175781 451.390625 183.621094 452.027344 C 183.621094 452.027344 199.152344 460.3125 199.152344 466.832031 C 199.152344 468.519531 198.152344 470.070312 195.597656 471.328125 C 188.59375 474.859375 164.078125 458.1875 164.078125 458.1875 C 164.078125 458.1875 142.160156 446.441406 123.003906 451.136719 C 88.265625 459.628906 60.628906 509.777344 60.628906 509.777344 C 60.628906 509.777344 96.726562 479.394531 125.238281 481.226562 C 133.515625 481.75 142.109375 484.644531 141.703125 492.765625 C 141.246094 501.21875 132.851562 502.378906 126.925781 502.113281 C 123.640625 501.976562 121.105469 501.410156 121.105469 501.410156 C 140.582031 516.429688 192.769531 530.875 251.859375 534.316406 C 308.941406 537.671875 395.40625 523.710938 487.636719 474.746094 C 532.6875 450.796875 597.953125 425.550781 651.488281 424.472656 C 699.929688 423.503906 730.667969 447.539062 730.371094 477.753906 C 730.234375 490.546875 725.878906 507.453125 712.308594 518.285156 C 712.308594 518.285156 765.148438 496.527344 764.699219 437.570312 C 764.226562 377.492188 734.210938 289.683594 577.941406 286.105469 Z M 577.941406 286.105469 "/>
<path style=" stroke:none;fill-rule:evenodd;fill:rgb(97.647059%,86.274511%,18.82353%);fill-opacity:1;" d="M 203.5 350.832031 C 203.5 350.832031 221.328125 368.757812 260.671875 371.976562 C 292.125 374.574219 297.757812 372.890625 297.757812 372.890625 C 295.679688 382.511719 295.410156 391.25 295.707031 401.535156 C 296.023438 411.796875 300.171875 429.304688 307.558594 429.21875 C 314.335938 429.152344 318.351562 420.554688 318.351562 405.09375 C 318.351562 389.765625 313.128906 376.8125 311.054688 371.3125 C 311.054688 371.3125 331.210938 368.738281 341.542969 367.457031 C 351.871094 366.175781 374.722656 359.839844 374.722656 359.839844 C 374.722656 359.839844 372.855469 362.945312 367.886719 367.777344 C 350.984375 384.199219 331.578125 421.515625 329.117188 450.023438 C 326.789062 477.253906 336.226562 494.175781 344.242188 498.597656 C 344.242188 498.597656 317.210938 503.683594 306.761719 504.691406 C 306.761719 504.691406 313.519531 489.929688 314.203125 469.566406 C 314.65625 455.449219 313.609375 441.789062 306.472656 441.699219 C 298.191406 441.605469 292.992188 450.609375 291.851562 470.273438 C 290.714844 489.914062 294.566406 503.070312 296.730469 505.691406 C 296.730469 505.691406 289.160156 507.199219 265.898438 507.015625 C 247.628906 506.828125 241.925781 503.636719 241.925781 503.636719 C 257.644531 494.425781 279.148438 473.71875 279.652344 449.085938 C 281.0625 379 215.398438 387.847656 203.5 350.832031 Z M 429.632812 321.117188 C 429.632812 321.117188 421.664062 330.855469 421.875 342.554688 C 422.105469 354.304688 427.738281 361.160156 433.054688 365.726562 C 442.1875 373.59375 466.460938 377.195312 465.867188 393.734375 C 465.273438 410.273438 453.617188 432.460938 453.644531 446.597656 C 453.683594 460.761719 455.402344 464.777344 455.402344 464.777344 C 455.402344 464.777344 483.085938 453.988281 490.679688 450.386719 C 490.679688 450.386719 477.089844 438.367188 477.109375 423.265625 C 477.109375 408.152344 493.257812 392.570312 500.777344 389.675781 C 500.777344 389.675781 497.867188 399.257812 497.089844 408.949219 C 496.058594 421.351562 502.121094 437.730469 517.199219 438.207031 C 525.460938 439.257812 530.136719 434.695312 530.136719 434.695312 C 523.289062 430.25 520.859375 426.144531 521.375 417.84375 C 522.949219 393.914062 552.164062 385.363281 553.03125 358.472656 C 552.742188 352.019531 550.867188 348.988281 550.867188 348.988281 C 556.175781 348.710938 560.523438 357.035156 560.929688 364.789062 C 561.320312 371.359375 556.464844 388.898438 549.953125 398.730469 C 543.460938 408.53125 538.011719 425.617188 538.140625 430.996094 C 538.140625 430.996094 560.523438 422.148438 567.421875 420.644531 C 567.421875 420.644531 564.070312 405.660156 565.921875 387.621094 C 567.015625 376.921875 569.730469 372.175781 574.109375 372.5 C 578.488281 372.769531 579.402344 378.792969 579.679688 384.566406 C 580.25 397.085938 576.234375 414.917969 575.09375 417.792969 C 575.09375 417.792969 592.058594 413.226562 599.085938 412.066406 C 599.085938 412.066406 592.222656 400.753906 593.753906 371.015625 C 594.726562 351.632812 605.726562 332.449219 612.316406 328.507812 C 612.316406 328.507812 612.660156 327.183594 596.074219 329.644531 C 582.789062 331.601562 579.523438 332.808594 579.523438 332.808594 C 581.257812 337.875 582.167969 344.058594 581.726562 350.140625 C 581.027344 359.835938 577.964844 365.378906 574.546875 365.175781 C 571.175781 364.921875 569.101562 360.796875 568.984375 349.898438 C 568.917969 341.109375 570.992188 334.269531 570.992188 334.269531 C 570.992188 334.269531 551.679688 337.898438 547.222656 339.765625 C 542.800781 332.359375 537.820312 327.339844 529.140625 326.0625 C 519.285156 324.601562 513.296875 327.496094 505.828125 327.046875 C 495.929688 326.429688 488.886719 320.109375 487.21875 313.632812 C 484.890625 317.03125 483.894531 320.527344 483.894531 323.945312 C 483.9375 332.617188 490.664062 340.390625 499.441406 342.738281 C 514.339844 346.660156 532.199219 351.605469 532.789062 367.640625 C 533.429688 384.335938 516.390625 391.0625 514.179688 401.257812 C 514.179688 401.257812 511.578125 399.296875 510.898438 391.792969 C 510.207031 384.476562 514.996094 375.96875 515.226562 370.105469 C 515.550781 362.28125 508.046875 353.074219 492.261719 348.101562 C 492.261719 348.101562 500.816406 358.207031 498.714844 369.105469 C 496.691406 379.300781 487.886719 380.851562 481.847656 388.398438 C 477.835938 392.894531 478.304688 394.671875 476.578125 395.402344 C 476.578125 395.402344 475.890625 392.183594 477.097656 387.527344 C 479.5625 378.453125 486.222656 373.59375 486.816406 364.835938 C 487.359375 356.101562 480.0625 348.304688 471.859375 347.273438 C 463.617188 346.25 453.691406 348.558594 444.097656 345.980469 C 434.539062 343.382812 429.460938 338.289062 428.476562 331.265625 C 427.558594 324.601562 429.632812 321.117188 429.632812 321.117188 Z M 429.632812 321.117188 "/>
<path style=" stroke:none;fill-rule:evenodd;fill:rgb(97.647059%,86.274511%,18.82353%);fill-opacity:1;" d="M 625.515625 369.625 C 630.03125 367.574219 635.753906 365.726562 638.851562 364.769531 C 640.222656 364.335938 641.179688 363.261719 641.300781 361.207031 C 641.777344 354.230469 639.742188 328.460938 628 328.167969 C 614.613281 327.78125 604.039062 344.675781 602.367188 369.96875 C 600.726562 395.238281 610.277344 408.851562 618.058594 409.40625 C 625.832031 409.902344 636.921875 401.855469 639.261719 388.328125 C 640.015625 384.046875 640.359375 378.773438 640.359375 378.773438 C 638.742188 382.015625 632.195312 391.886719 622.636719 391.273438 C 619.742188 391.0625 616.546875 387.464844 616.871094 382.582031 C 617.214844 377.726562 618.992188 372.636719 625.515625 369.625 Z M 630.800781 358.15625 C 624.949219 360.429688 617.441406 364.21875 617.441406 364.21875 C 617.351562 364.519531 618.054688 340.140625 628.453125 339.933594 C 632.816406 339.816406 632.816406 351.355469 632.742188 355.648438 C 632.695312 357.128906 631.441406 357.925781 630.800781 358.15625 Z M 682.03125 380 C 680.296875 383.195312 673.746094 391.75 665.242188 391.382812 C 658.878906 391.085938 658.167969 384.085938 658.125 380.640625 C 658.039062 377.195312 660.113281 374.4375 665.242188 372.589844 C 670.261719 370.832031 679.316406 368.117188 681.546875 367.457031 C 682.847656 367.050781 683.175781 365.792969 683.175781 365.128906 C 683.332031 358.8125 683.398438 333.15625 669.507812 332.808594 C 659.726562 332.609375 650.898438 341.390625 647.160156 364.011719 C 643.714844 384.632812 648.910156 405.476562 661.457031 407.144531 C 677.515625 409.257812 681.390625 386.476562 682.03125 380 Z M 668.804688 342.621094 C 674.050781 342.855469 674.050781 355.304688 673.910156 359.457031 C 673.882812 360.277344 673.339844 361.007812 672.019531 361.394531 C 666.867188 363.097656 659.132812 365.996094 659.132812 365.996094 C 661.363281 347.617188 665.378906 342.484375 668.804688 342.621094 Z M 444.222656 452.53125 C 443.242188 454.992188 437.882812 461.308594 433.429688 461.832031 C 428.03125 462.445312 426.183594 459.324219 425.769531 451 C 425.316406 443.296875 426.660156 421.578125 427.074219 415.808594 L 443.121094 409.582031 L 444.40625 399.796875 L 427.566406 406.164062 C 428.179688 399.070312 429.914062 390.953125 434.320312 386.25 C 435.640625 384.90625 436.417969 384.878906 436.417969 384.429688 L 434.457031 384.195312 C 427.476562 384.878906 407.632812 388.054688 402.546875 389.667969 L 401.542969 390.515625 L 402.203125 391.582031 C 406.546875 395.464844 408.25 407.667969 408.273438 413.277344 L 398.828125 416.558594 C 396.230469 403.378906 383.550781 397.3125 374.46875 397.429688 C 359.398438 397.609375 341.625 411.84375 340.441406 444.480469 C 339.160156 478.300781 351.980469 494.46875 368.109375 495.199219 C 384.480469 495.933594 398.691406 474.859375 400.628906 440.832031 C 400.976562 434.652344 400.695312 429.378906 400.628906 426.097656 L 407.980469 423.128906 C 407.90625 429.21875 407.589844 448.054688 407.453125 457.128906 C 407.21875 467.828125 411.671875 478.476562 421.980469 477.679688 C 432.269531 476.90625 439.109375 472.847656 442.945312 464.339844 C 444.101562 461.695312 444.605469 454.558594 444.808594 452.636719 L 444.644531 451.886719 Z M 382.023438 440.328125 C 381.640625 470.121094 375.503906 480.421875 370.171875 480.082031 C 364.808594 479.734375 359.949219 467.015625 360.363281 443.929688 C 360.664062 426.894531 363.992188 411.109375 372.746094 409.808594 C 378.519531 408.988281 382.347656 417.75 382.023438 440.328125 Z M 724.863281 381.28125 C 725.117188 378.015625 725.933594 375.917969 729.3125 376.0625 C 731.128906 376.085938 732.59375 378.476562 732.910156 381.011719 C 733.089844 382.539062 732.835938 384.113281 731.96875 385.300781 C 731.96875 385.300781 734.859375 384.34375 736.621094 383.863281 C 739.9375 382.902344 740.753906 382.789062 742.027344 382.582031 C 742.027344 382.582031 741.730469 379.136719 740.523438 374.941406 C 739.015625 369.582031 735.1875 365.476562 728.34375 364.925781 C 720.585938 364.292969 716.023438 370.105469 714.976562 376.832031 C 713.980469 383.582031 719.363281 392.089844 722.207031 396.449219 C 725.351562 401.167969 730.304688 408.511719 730.441406 413.367188 C 730.578125 417.613281 729.097656 419.457031 726.0625 419.441406 C 724.214844 419.441406 721.199219 417.496094 721.019531 411.777344 C 720.96875 409.675781 721.570312 407.003906 722.113281 406.597656 L 715.3125 403.972656 C 713.035156 411.617188 714.179688 433.140625 728.113281 435.175781 C 740.425781 436.953125 742.960938 427.851562 743.191406 421.515625 C 743.457031 414.128906 737.46875 402.539062 731.71875 395.402344 C 726.890625 389.421875 724.589844 385.703125 724.863281 381.28125 Z M 724.863281 381.28125 "/>
<path style=" stroke:none;fill-rule:evenodd;fill:rgb(97.647059%,86.274511%,18.82353%);fill-opacity:1;" d="M 714.238281 392.566406 L 704.339844 387.027344 C 705.085938 388.667969 705.171875 390.515625 705.199219 392.835938 C 705.199219 396.992188 703.125 401 700.707031 400.253906 C 696.921875 399.019531 695.664062 391.652344 697.289062 377.769531 C 698.785156 365.085938 705.726562 348.644531 705.726562 348.644531 C 704.492188 347.523438 705.085938 348.066406 697.007812 343.578125 C 689.007812 339.175781 687.109375 339.378906 687.109375 339.378906 C 687.109375 339.378906 691.335938 351.925781 690.394531 373.34375 C 689.484375 394.761719 680.570312 410.035156 680.570312 410.035156 C 680.570312 410.035156 683.488281 410.066406 693.863281 413.957031 C 707.726562 419.113281 709.648438 422.675781 709.648438 422.675781 L 709.851562 416.882812 C 710.085938 403.105469 713.546875 392.9375 714.238281 392.566406 Z M 714.238281 392.566406 "/>
</g>
</svg>
